# xmcd
#
# Track frame offsets:
#	150
#	13634
#	30496
#	43952
#	58473
#	71853
#	89696
#	102868
#	116752
#	134534
#
# Disc length: 1979 seconds
#
# Revision: 0
# Processed by: cddbd v1.5.2PL0 Copyright (c) Steve Scherf et al.
# Submitted via: dBpowerAMP V4.0
#
DISCID=9707b90a
DTITLE=Vinnick Sheppard Harte - My Favorite Shirt
DYEAR=2006
DGENRE=Country
TTITLE0=Love the one you're with
TTITLE1=My favorite shirt
TTITLE2=Taking on to much
TTITLE3=Love of Mine
TTITLE4=Wherever I go
TTITLE5=My Poor Heart
TTITLE6=Big Yellow Taxi
TTITLE7=These boots are made for Walkin'
TTITLE8=Across the Border
TTITLE9=Love hurts
EXTD=
EXTT0=
EXTT1=
EXTT2=
EXTT3=
EXTT4=
EXTT5=
EXTT6=
EXTT7=
EXTT8=
EXTT9=
PLAYORDER=
